General
Count                                    : 331
Count of stream of this kind             : 1
Kind of stream                           : General
Kind of stream                           : General
Stream identifier                        : 0
Count of audio streams                   : 1
Audio_Format_List                        : MPEG Audio
Audio_Format_WithHint_List               : MPEG Audio
Audio codecs                             : MPEG Audio
Complete name                            : /media/mau/music-library/music/Alphaville/First Harvest 1984 - 92/01 Big in Japan.mp3
Folder name                              : /media/mau/music-library/music/Alphaville/First Harvest 1984 - 92
File name extension                      : 01 Big in Japan.mp3
File name                                : 01 Big in Japan
File extension                           : mp3
Format                                   : MPEG Audio
Format                                   : MPEG Audio
Format/Extensions usually used           : m1a mpa mpa1 mp1 m2a mpa2 mp2 mp3
Commercial name                          : MPEG Audio
Internet media type                      : audio/mpeg
File size                                : 7548831
File size                                : 7.20 MiB
File size                                : 7 MiB
File size                                : 7.2 MiB
File size                                : 7.20 MiB
File size                                : 7.199 MiB
Duration                                 : 234710
Duration                                 : 3 min 54 s
Duration                                 : 3 min 54 s 710 ms
Duration                                 : 3 min 54 s
Duration                                 : 00:03:54.710
Duration                                 : 00:03:54.710
Overall bit rate mode                    : CBR
Overall bit rate mode                    : Constant
Overall bit rate                         : 256000
Overall bit rate                         : 256 kb/s
Stream size                              : 38105
Stream size                              : 37.2 KiB (1%)
Stream size                              : 37 KiB
Stream size                              : 37 KiB
Stream size                              : 37.2 KiB
Stream size                              : 37.21 KiB
Stream size                              : 37.2 KiB (1%)
Proportion of this stream                : 0.00505
Title                                    : Big in Japan
Album                                    : First Harvest 1984 - 92
Album/Performer                          : Alphaville
Track name                               : Big in Japan
Track name/Position                      : 1
Performer                                : Alphaville
Genre                                    : Synthpop
Recorded date                            : 1984
File last modification date              : UTC 2020-05-21 03:55:44
File last modification date (local)      : 2020-05-20 22:55:44
Writing library                          : LAME3.97.1
Writing library                          : LAME3.97.1
Cover                                    : Yes
Cover MIME                               : image/jpeg
Lyrics                                   : winter´s cityside / crystal bits of snowflakes all around my head and in the wind / i had no illusions / that i´d ever find a glimps of summer´s heatwaves in your eyes / you did what you did to me, now it´s history i see / here´s my comeback on the road again / things will happen while they can / i will wait here for my man tonight, it´s easy when your big in japan / when your big in japan, tonight / big in japan, be tight, big in japan where the eastern sea´s so blue / big in japan, alright, pay, then i´ll sleep by your side / things are easy when you´re big in japan, when you´re big in japan / neon on my naked skin / passing silhouettes of strange illuminated mannequins / shall i stay here at the zoo / or shall i go and change my point of view for other ugly scenes / you did what you did to me, now it´s history i see... / things will happen while they can / i will wait here for my man tonight, it´s easy when you´re big in japan
Comment                                  : http://leyzaola.net

Audio
Count                                    : 280
Count of stream of this kind             : 1
Kind of stream                           : Audio
Kind of stream                           : Audio
Stream identifier                        : 0
Format                                   : MPEG Audio
Format                                   : MPEG Audio
Commercial name                          : MPEG Audio
Format version                           : Version 1
Format profile                           : Layer 3
Format settings                          : Joint stereo
Mode                                     : Joint stereo
Internet media type                      : audio/mpeg
Duration                                 : 234710
Duration                                 : 3 min 54 s
Duration                                 : 3 min 54 s 710 ms
Duration                                 : 3 min 54 s
Duration                                 : 00:03:54.710
Duration                                 : 00:03:56:17
Duration                                 : 00:03:54.710 (00:03:56:17)
Bit rate mode                            : CBR
Bit rate mode                            : Constant
Bit rate                                 : 256000
Bit rate                                 : 256 kb/s
Channel(s)                               : 2
Channel(s)                               : 2 channels
Samples per frame                        : 1152
Sampling rate                            : 44100
Sampling rate                            : 44.1 kHz
Samples count                            : 10350720
Frame rate                               : 38.281
Frame rate                               : 38.281 FPS (1152 SPF)
Frame count                              : 8985
Compression mode                         : Lossy
Compression mode                         : Lossy
Stream size                              : 7510726
Stream size                              : 7.16 MiB (99%)
Stream size                              : 7 MiB
Stream size                              : 7.2 MiB
Stream size                              : 7.16 MiB
Stream size                              : 7.163 MiB
Stream size                              : 7.16 MiB (99%)
Proportion of this stream                : 0.99495
Writing library                          : LAME3.97.1
Writing library                          : LAME3.97.1


